<?xml version="1.0" encoding="UTF-8" standalone="no"?>
<svg 
  version="1.1" 
  xmlns="http://www.w3.org/2000/svg" 
  xmlns:xlink="http://www.w3.org/1999/xlink" 
  xmlns:svg="http://www.w3.org/2000/svg"
  xmlns:rdf="http://www.w3.org/1999/02/22-rdf-syntax-ns#"
  xmlns:cc="http://creativecommons.org/ns#"
  xmlns:dc="http://purl.org/dc/elements/1.1/"
  viewBox="0 0 768 768"
  width="768"
  height="768"
>
<style>svg {background-color: white; }</style>"
<metadata id="metadata1">
Created by https://svgstud.io and licensed under CC-BY-SA 4.0 license. Please attribute https://svgstud.io
</metadata>
<metadata id="prompt">
A stopwatch, vector illustration, monochrome
</metadata>
<metadata id="version">
7
</metadata>
<metadata id="metadata2">
<rdf:RDF>
<cc:Work
    rdf:about="">
    <cc:license
    rdf:resource="http://creativecommons.org/licenses/by-sa/4.0/" />
    <dc:creator>
        <cc:Agent>
            <dc:title>https://svgstud.io</dc:title>
        </cc:Agent>
    </dc:creator>
</cc:Work>
<cc:License
    rdf:about="http://creativecommons.org/licenses/by-sa/4.0/">
    <cc:permits
    rdf:resource="http://creativecommons.org/ns#Reproduction" />
    <cc:permits
    rdf:resource="http://creativecommons.org/ns#Distribution" />
    <cc:requires
    rdf:resource="http://creativecommons.org/ns#Notice" />
    <cc:requires
    rdf:resource="http://creativecommons.org/ns#Attribution" />
    <cc:permits
    rdf:resource="http://creativecommons.org/ns#DerivativeWorks" />
    <cc:requires
    rdf:resource="http://creativecommons.org/ns#ShareAlike" />
</cc:License>
</rdf:RDF>
</metadata>
<metadata id="uid">
f62e93eb44ac3868985a6032b128d671a9e42a89e7f7dc653249313e9d6ba3ac
</metadata>
<path stroke="none" fill="black" fill-rule="evenodd" d="M378.00,667.24C368.38,667.44 356.00,667.48 350.50,667.34C345.00,667.19 332.62,666.58 323.00,665.97C313.38,665.37 294.70,663.76 281.50,662.39C268.30,661.02 251.88,659.01 245.00,657.91C238.12,656.81 228.93,655.00 224.57,653.89C220.21,652.78 215.26,651.17 213.57,650.32C211.88,649.47 209.26,647.61 207.75,646.20C206.24,644.78 205.00,642.62 205.00,641.39C205.00,640.01 206.45,637.95 208.75,636.05C210.81,634.35 214.88,632.07 217.79,630.98C220.70,629.89 225.08,629.00 227.54,629.00C229.99,629.00 232.00,628.56 232.00,628.01C232.00,627.47 225.59,622.83 217.75,617.70C209.91,612.57 198.90,604.67 193.28,600.14C187.65,595.61 177.88,586.41 171.56,579.70C165.23,572.99 157.29,563.90 153.90,559.50C150.50,555.10 145.86,548.58 143.57,545.00C141.27,541.42 137.34,534.90 134.81,530.49C132.29,526.09 128.00,517.54 125.27,511.49C122.55,505.45 118.90,496.23 117.17,491.00C115.44,485.77 112.94,476.55 111.61,470.50C110.27,464.45 108.58,455.45 107.84,450.50C107.03,445.08 106.52,433.16 106.54,420.50C106.57,408.37 107.13,396.12 107.88,391.50C108.59,387.10 110.65,377.43 112.46,370.00C114.26,362.57 117.85,351.10 120.43,344.50C123.01,337.90 127.58,327.92 130.58,322.32C133.58,316.72 139.10,307.49 142.84,301.82C146.58,296.14 153.03,287.44 157.16,282.47C161.30,277.50 170.02,268.09 176.54,261.57C183.06,255.04 192.86,246.14 198.32,241.79C203.78,237.45 212.13,231.29 216.87,228.11C221.62,224.93 228.53,220.65 232.24,218.59C235.95,216.52 239.24,214.42 239.56,213.91C239.87,213.39 237.97,210.42 235.32,207.29C232.67,204.17 228.81,200.07 226.74,198.18C224.67,196.29 220.73,191.39 217.99,187.29C214.83,182.56 213.00,178.76 213.00,176.89C213.00,174.87 214.21,172.64 216.90,169.73C219.05,167.40 223.99,163.60 227.87,161.28C231.76,158.95 236.05,156.78 237.40,156.44C239.61,155.88 240.36,156.61 244.68,163.56C247.33,167.83 250.51,172.38 251.74,173.69C253.58,175.64 254.35,175.88 255.99,175.00C257.10,174.41 257.99,173.38 257.97,172.71C257.95,172.05 255.71,167.23 253.00,162.02C249.82,155.91 248.40,152.20 249.03,151.57C249.56,151.04 252.44,150.58 255.43,150.55C260.09,150.51 261.29,150.91 263.85,153.36C265.49,154.93 268.22,158.82 269.92,162.00C271.61,165.18 273.00,168.89 273.00,170.25C273.00,171.72 271.32,174.63 268.84,177.45C264.67,182.18 264.67,182.18 267.34,187.61C268.80,190.60 270.00,193.68 270.00,194.46C270.00,195.24 270.44,196.16 270.99,196.49C271.53,196.83 276.26,195.73 281.50,194.05C286.74,192.37 294.96,190.12 299.77,189.05C304.57,187.98 312.92,186.45 318.32,185.65C323.72,184.85 328.32,184.02 328.53,183.80C328.75,183.59 328.50,179.38 327.98,174.46C327.46,169.53 327.03,161.33 327.02,156.23C327.00,147.02 326.98,146.94 324.25,145.95C322.74,145.40 319.98,144.17 318.11,143.22C316.25,142.28 311.17,138.17 306.82,134.11C302.08,129.68 297.36,124.07 295.03,120.11C292.89,116.47 290.43,110.74 289.57,107.36C288.71,103.98 288.01,97.90 288.01,93.86C288.02,89.81 288.62,84.25 289.36,81.50C290.09,78.75 291.71,74.47 292.96,72.00C294.21,69.53 296.93,65.21 299.02,62.41C301.11,59.61 305.96,54.99 309.80,52.15C313.64,49.30 319.76,45.62 323.40,43.97C327.04,42.32 332.82,40.31 336.26,39.50C339.69,38.69 347.00,38.03 352.50,38.03C358.00,38.03 365.43,38.71 369.00,39.55C372.57,40.38 379.10,42.85 383.50,45.03C387.90,47.21 394.12,51.08 397.32,53.63C400.52,56.19 405.33,61.40 408.01,65.21C410.69,69.03 413.92,75.16 415.17,78.83C416.93,83.96 417.44,87.58 417.37,94.50C417.31,101.43 416.71,105.17 414.74,110.76C413.34,114.76 410.74,120.29 408.97,123.05C407.19,125.81 401.86,131.67 397.12,136.07C392.38,140.46 386.59,144.99 384.25,146.12C380.00,148.18 380.00,148.18 380.02,164.84C380.02,174.00 380.40,182.08 380.85,182.79C381.31,183.52 386.37,184.76 392.56,185.67C398.55,186.55 408.86,188.73 415.48,190.52C422.09,192.31 432.45,195.62 438.50,197.88C444.55,200.13 450.02,201.98 450.65,201.99C451.29,201.99 452.32,200.76 452.94,199.25C453.57,197.74 455.40,194.25 457.02,191.50C458.63,188.75 459.96,185.54 459.98,184.37C459.99,183.20 459.35,181.71 458.56,181.05C457.77,180.39 455.86,180.00 454.33,180.18C452.02,180.44 451.05,181.52 448.72,186.38C445.91,192.27 445.91,192.27 448.13,194.63C450.35,197.00 450.35,197.00 447.62,197.00C446.13,197.00 443.55,196.30 441.90,195.45C439.49,194.20 439.03,193.47 439.58,191.70C439.95,190.49 441.10,187.83 442.13,185.79C443.16,183.75 444.00,181.47 444.00,180.71C444.00,179.96 442.88,178.29 441.50,177.00C440.13,175.71 439.00,173.86 439.00,172.90C439.00,171.94 440.87,167.51 443.15,163.06C445.43,158.61 448.34,153.85 449.60,152.48C451.08,150.89 452.90,150.04 454.70,150.12C456.80,150.20 457.00,150.35 455.50,150.72C454.40,150.99 452.86,151.73 452.08,152.36C451.30,152.99 449.36,156.36 447.78,159.85C446.19,163.35 445.03,167.14 445.19,168.28C445.39,169.61 446.55,170.65 448.41,171.14C450.02,171.57 451.71,171.68 452.19,171.38C452.66,171.09 454.32,168.30 455.88,165.18C457.45,162.05 459.27,157.81 459.94,155.75C460.77,153.19 461.75,152.00 463.02,152.00C464.85,152.00 464.85,152.13 463.04,157.25C462.03,160.14 460.48,164.17 459.60,166.22C458.72,168.26 458.00,170.66 458.00,171.54C458.00,172.52 458.67,173.02 459.71,172.82C460.69,172.63 463.24,168.90 465.73,164.00C469.79,156.02 469.94,155.43 468.27,154.14C466.69,152.91 466.82,152.84 469.50,153.46C471.15,153.84 475.34,155.50 478.80,157.15C482.27,158.80 486.67,161.53 488.59,163.21C490.51,164.90 492.54,167.14 493.10,168.19C493.93,169.74 493.04,172.05 488.44,180.30C485.31,185.91 481.54,192.07 480.06,194.00C478.58,195.93 475.93,199.87 474.18,202.77C472.43,205.66 471.00,208.85 471.00,209.85C471.00,210.88 472.21,212.22 473.75,212.91C475.26,213.59 481.45,217.12 487.50,220.76C493.55,224.39 502.77,230.54 508.00,234.42C513.23,238.31 522.23,245.99 528.00,251.49C533.77,257.00 541.42,264.80 545.00,268.83C548.58,272.86 554.50,280.18 558.16,285.10C561.83,290.02 567.41,298.36 570.55,303.63C573.70,308.91 578.40,317.39 580.99,322.48C583.58,327.57 587.82,337.49 590.41,344.53C593.01,351.57 596.20,361.35 597.52,366.27C598.84,371.19 600.70,380.23 601.66,386.35C602.97,394.64 603.42,403.66 603.45,421.50C603.46,436.49 602.97,449.06 602.12,455.00C601.38,460.23 599.50,469.68 597.95,476.00C596.40,482.32 593.50,492.23 591.51,498.00C589.51,503.77 585.04,514.41 581.56,521.62C578.08,528.84 572.53,539.04 569.23,544.30C565.93,549.55 560.61,557.32 557.42,561.57C554.22,565.81 547.61,573.59 542.72,578.86C537.83,584.12 533.01,589.58 532.01,590.98C530.19,593.54 530.19,593.54 540.42,593.16C546.35,592.95 556.10,593.47 563.58,594.41C570.69,595.31 583.48,597.42 592.00,599.11C600.52,600.79 611.77,603.53 617.00,605.20C622.23,606.87 628.52,609.26 631.00,610.52C633.48,611.78 636.54,613.91 637.80,615.27C639.53,617.12 639.94,618.40 639.44,620.37C639.08,621.82 637.37,624.20 635.64,625.67C633.91,627.13 629.24,629.84 625.27,631.69C621.29,633.54 612.33,636.61 605.36,638.52C598.39,640.43 584.10,643.79 573.59,645.99C563.09,648.18 549.10,650.87 542.50,651.96C535.90,653.05 517.90,655.52 502.50,657.44C487.10,659.36 466.62,661.62 457.00,662.46C447.38,663.29 429.60,664.63 417.50,665.42C405.40,666.22 387.62,667.04 378.00,667.24zM236.22,635.00C242.29,635.00 242.39,634.96 240.09,633.35C238.80,632.44 236.45,631.74 234.88,631.78C233.31,631.83 231.57,632.15 231.01,632.49C230.46,632.84 230.00,633.54 230.00,634.06C230.00,634.58 232.80,635.00 236.22,635.00zM527.19,621.79C528.12,621.91 529.11,621.63 529.39,621.17C529.68,620.72 526.55,619.55 522.45,618.59C518.35,617.62 515.21,616.47 515.48,616.04C515.75,615.60 517.97,614.74 520.43,614.12C522.88,613.51 527.50,613.00 530.69,613.00C533.89,613.00 539.65,612.33 543.50,611.52C547.35,610.70 552.28,610.03 554.45,610.02C557.26,610.01 558.09,609.69 557.33,608.93C556.74,608.34 550.48,606.08 543.43,603.90C536.37,601.72 529.86,599.28 528.97,598.47C528.07,597.66 526.97,597.00 526.51,597.00C526.05,597.00 522.49,599.63 518.59,602.84C514.69,606.05 508.17,611.33 504.09,614.59C496.68,620.50 496.68,620.50 511.09,621.04C519.02,621.34 526.26,621.68 527.19,621.79zM367.50,618.33C376.30,618.09 388.45,617.22 394.50,616.39C400.55,615.56 411.12,613.54 418.00,611.91C424.88,610.28 434.32,607.80 439.00,606.39C443.68,604.97 452.77,601.58 459.22,598.84C465.67,596.11 475.08,591.62 480.13,588.88C485.18,586.13 493.86,580.79 499.41,577.00C504.96,573.21 512.92,567.05 517.10,563.31C521.28,559.56 527.68,553.25 531.32,549.28C534.96,545.30 539.60,539.56 541.62,536.51C543.65,533.46 545.02,530.69 544.68,530.35C544.34,530.00 540.56,533.09 536.28,537.21C532.00,541.32 524.86,547.80 520.41,551.59C515.96,555.39 508.46,561.10 503.73,564.27C499.01,567.44 489.37,573.18 482.32,577.02C475.27,580.87 464.32,586.20 458.00,588.87C451.68,591.55 440.73,595.61 433.68,597.90C426.62,600.20 416.56,602.96 411.31,604.04C406.07,605.12 396.54,606.70 390.14,607.54C382.90,608.50 370.74,609.09 358.00,609.10C345.00,609.10 333.60,608.55 326.84,607.59C320.97,606.76 311.71,605.16 306.25,604.05C300.80,602.94 290.30,599.98 282.92,597.48C275.54,594.98 263.20,589.84 255.50,586.06C247.80,582.27 238.57,577.28 235.00,574.97C231.43,572.65 224.45,567.46 219.50,563.45C214.55,559.43 205.94,551.50 200.38,545.82C194.19,539.52 187.72,531.60 183.74,525.50C180.16,520.00 174.47,510.67 171.08,504.76C167.69,498.86 163.11,490.08 160.89,485.26C158.67,480.44 155.32,471.44 153.45,465.26C151.58,459.08 149.09,449.41 147.94,443.76C146.60,437.28 145.62,427.80 145.28,418.00C144.94,408.57 145.20,398.39 145.93,392.00C146.60,386.23 148.00,377.61 149.05,372.85C150.10,368.10 152.72,359.28 154.86,353.26C157.01,347.24 161.72,336.50 165.33,329.41C168.94,322.31 174.57,312.45 177.84,307.50C181.11,302.55 188.04,293.55 193.24,287.50C198.44,281.45 207.15,272.21 212.60,266.98C218.04,261.74 226.78,254.28 232.00,250.39C237.22,246.50 246.71,240.18 253.09,236.34C259.46,232.50 269.48,227.25 275.36,224.68C281.25,222.10 291.33,218.23 297.78,216.08C304.23,213.93 312.97,211.46 317.20,210.59C321.44,209.71 329.54,208.49 335.20,207.88C341.36,207.20 353.33,206.97 365.00,207.29C377.87,207.65 388.58,208.54 396.50,209.90C403.10,211.04 413.57,213.31 419.77,214.95C425.97,216.60 434.54,219.48 438.82,221.36C443.09,223.24 451.30,227.81 457.05,231.51C462.80,235.21 468.85,239.18 470.49,240.33C472.14,241.48 476.75,244.58 480.74,247.23C484.74,249.87 492.17,255.71 497.25,260.21C502.34,264.70 507.62,269.27 509.00,270.36C510.38,271.45 507.68,268.53 503.00,263.88C498.32,259.22 490.58,252.51 485.80,248.96C481.01,245.41 471.37,238.90 464.37,234.50C457.37,230.10 448.02,224.15 443.57,221.27C437.62,217.41 436.11,216.03 437.82,216.02C439.10,216.01 443.49,217.12 447.58,218.49C451.66,219.87 460.33,223.65 466.82,226.91C473.32,230.17 482.43,235.42 487.07,238.58C491.71,241.74 500.00,248.02 505.50,252.55C511.00,257.07 518.52,263.77 522.22,267.44C525.92,271.10 532.90,278.69 537.74,284.30C542.58,289.91 548.27,296.64 550.39,299.25C552.51,301.86 554.63,304.00 555.12,304.00C555.60,304.00 555.17,301.83 554.16,299.18C553.15,296.53 550.17,291.01 547.52,286.93C544.88,282.84 540.14,276.34 536.99,272.49C533.84,268.63 527.22,261.63 522.29,256.94C517.35,252.24 507.54,244.07 500.48,238.77C493.41,233.48 484.35,227.27 480.33,224.97C476.31,222.67 468.17,218.62 462.24,215.98C456.31,213.33 445.97,209.33 439.26,207.09C432.55,204.85 422.66,201.87 417.28,200.47C411.90,199.07 400.52,197.01 392.00,195.89C380.82,194.42 370.92,193.86 356.50,193.87C344.90,193.87 330.95,194.53 323.28,195.43C316.00,196.28 306.55,197.69 302.28,198.56C298.00,199.44 288.38,202.15 280.90,204.58C273.41,207.02 262.64,211.29 256.96,214.07C251.27,216.85 241.99,221.88 236.32,225.25C230.66,228.61 221.18,234.94 215.26,239.32C209.34,243.69 200.21,251.59 194.97,256.88C189.73,262.17 183.39,269.20 180.90,272.50C178.40,275.80 173.52,283.23 170.05,289.00C166.58,294.77 160.90,304.90 157.43,311.50C153.97,318.10 149.70,327.10 147.94,331.50C146.19,335.90 143.48,343.88 141.92,349.24C140.36,354.60 138.18,363.82 137.09,369.74C135.99,375.66 134.62,384.87 134.05,390.21C133.47,395.55 133.00,405.32 133.00,411.91C133.00,418.50 133.69,429.21 134.54,435.70C135.38,442.19 137.23,452.66 138.63,458.96C140.04,465.26 142.66,474.72 144.44,479.97C146.23,485.23 150.19,494.54 153.25,500.68C156.31,506.82 160.73,514.68 163.08,518.17C165.43,521.65 170.08,527.87 173.43,531.99C176.77,536.10 182.33,542.63 185.79,546.49C189.24,550.34 196.44,557.50 201.79,562.39C207.13,567.27 217.35,575.15 224.50,579.89C231.65,584.62 242.23,590.84 248.00,593.71C253.78,596.57 263.00,600.56 268.50,602.57C274.00,604.57 283.00,607.52 288.50,609.11C294.00,610.71 303.23,612.89 309.00,613.96C314.77,615.03 324.00,616.38 329.50,616.96C335.00,617.54 342.20,618.18 345.50,618.39C348.80,618.59 358.70,618.56 367.50,618.33zM358.68,597.92C359.33,597.96 360.60,597.26 361.51,596.35C362.72,595.14 363.11,593.17 362.96,589.10C362.85,586.02 362.81,581.36 362.88,578.75C363.00,574.00 363.00,574.00 368.52,574.00C373.34,574.00 374.16,574.29 374.90,576.25C375.37,577.49 376.08,581.42 376.49,585.00C376.90,588.58 377.67,592.33 378.20,593.35C378.98,594.83 379.88,595.07 382.84,594.54C384.85,594.19 387.32,593.65 388.32,593.36C389.97,592.87 390.07,592.00 389.45,584.02C388.77,575.42 388.81,575.19 391.07,574.48C392.80,573.93 393.81,574.28 395.11,575.89C396.07,577.07 397.82,580.95 399.01,584.52C401.02,590.56 401.36,591.00 404.15,591.00C405.79,591.00 407.97,590.55 408.99,590.01C410.54,589.17 410.69,588.48 409.93,585.70C409.42,583.87 408.62,580.32 408.15,577.80C407.66,575.15 407.68,572.54 408.20,571.61C408.69,570.72 410.10,570.00 411.33,570.00C413.12,570.00 414.37,571.64 417.77,578.50C420.09,583.17 422.50,587.00 423.13,587.00C423.77,587.00 427.37,586.08 431.14,584.96C434.91,583.83 438.00,582.40 438.00,581.77C438.00,581.14 436.36,575.96 434.35,570.26C432.18,564.11 431.06,559.54 431.60,559.01C432.09,558.52 434.63,558.00 437.23,557.87C439.83,557.74 442.11,557.82 442.30,558.06C442.49,558.30 444.52,561.53 446.82,565.23C449.12,568.92 451.00,572.86 451.00,573.98C451.00,575.09 450.47,576.00 449.83,576.00C449.19,576.00 448.92,576.26 449.24,576.57C449.55,576.88 452.10,576.15 454.90,574.95C457.71,573.74 460.00,572.35 460.00,571.85C460.00,571.36 457.91,567.35 455.35,562.95C450.70,554.95 450.70,554.95 453.02,552.47C454.30,551.11 455.93,550.00 456.63,550.00C457.34,550.00 460.46,553.15 463.57,557.00C466.68,560.85 469.65,564.00 470.16,564.00C470.68,564.00 472.43,563.31 474.05,562.47C475.67,561.64 476.99,560.62 476.98,560.22C476.97,559.83 474.92,556.36 472.44,552.52C469.95,548.69 468.05,544.67 468.21,543.60C468.37,542.53 469.02,541.49 469.65,541.28C470.29,541.07 473.61,543.40 477.03,546.45C480.45,549.50 484.11,552.00 485.16,552.00C486.21,552.00 487.32,551.34 487.62,550.54C487.93,549.73 486.76,546.58 485.02,543.54C483.28,540.49 482.07,538.00 482.33,538.00C482.60,538.00 484.70,539.58 487.00,541.50C489.30,543.42 492.06,545.00 493.13,545.00C494.19,545.00 495.34,544.29 495.67,543.42C496.08,542.35 494.28,539.82 490.14,535.64C486.76,532.23 484.00,528.94 484.00,528.33C484.00,527.72 484.68,526.95 485.51,526.64C486.34,526.32 488.07,526.46 489.36,526.95C490.65,527.44 493.96,529.23 496.72,530.92C499.47,532.61 502.46,534.00 503.36,534.00C504.26,534.00 505.90,533.10 507.00,532.00C508.10,530.90 509.00,529.56 509.00,529.02C509.00,528.48 506.75,526.36 504.00,524.31C501.25,522.25 499.00,520.09 499.00,519.50C499.00,518.91 500.29,516.88 501.87,514.98C504.74,511.54 504.74,511.54 510.14,514.27C513.10,515.77 516.24,517.00 517.11,517.00C517.98,517.00 519.55,516.05 520.60,514.89C522.48,512.80 522.47,512.76 519.00,509.83C517.08,508.20 512.91,505.26 509.75,503.29C505.98,500.95 504.00,499.05 504.00,497.79C504.00,496.73 505.12,494.39 506.50,492.59C507.88,490.79 509.00,488.74 509.00,488.05C509.00,487.19 510.04,486.93 512.25,487.26C514.04,487.52 519.99,489.81 525.49,492.35C535.35,496.91 535.50,496.94 537.41,495.04C539.02,493.42 539.12,492.85 538.03,491.54C537.31,490.67 533.64,488.34 529.86,486.36C525.36,483.99 523.00,482.15 523.00,481.00C523.00,480.03 523.67,478.69 524.48,478.02C525.66,477.04 527.34,477.21 532.88,478.90C536.69,480.05 540.52,481.00 541.38,481.00C542.25,481.00 543.60,479.99 544.40,478.75C545.19,477.51 545.99,475.39 546.17,474.03C546.47,471.77 545.96,471.41 540.31,469.87C536.90,468.94 533.64,467.89 533.06,467.53C532.47,467.18 532.00,465.99 532.00,464.91C532.00,463.82 532.76,462.65 533.69,462.29C534.62,461.93 538.78,462.35 542.94,463.22C549.93,464.68 550.60,464.68 551.79,463.15C552.51,462.24 552.96,460.18 552.79,458.56C552.55,456.11 551.91,455.47 549.00,454.78C547.08,454.32 543.59,453.24 541.25,452.39C538.91,451.53 537.00,450.28 537.00,449.61C537.00,448.93 537.56,447.61 538.25,446.67C539.39,445.11 540.24,445.06 547.33,446.17C553.98,447.20 555.28,447.17 556.06,445.94C556.56,445.15 556.98,442.84 556.98,440.82C557.00,437.14 557.00,437.14 551.25,436.03C548.09,435.42 544.46,434.70 543.19,434.43C541.35,434.03 540.94,433.37 541.19,431.22C541.50,428.54 541.60,428.50 549.00,428.44C553.12,428.41 557.09,428.30 557.81,428.19C558.71,428.06 559.02,426.67 558.81,423.75C558.50,419.50 558.50,419.50 553.50,418.66C550.75,418.19 546.92,417.28 545.00,416.62C541.67,415.48 541.49,415.18 541.20,410.21C540.90,405.00 540.90,405.00 550.01,405.00C555.03,405.00 560.00,404.53 561.07,403.96C562.13,403.40 563.00,402.09 563.00,401.07C563.00,400.05 562.29,398.94 561.42,398.61C560.55,398.27 556.78,398.00 553.04,398.00C549.31,398.00 544.84,397.72 543.13,397.38C540.39,396.83 540.00,396.34 540.00,393.50C540.00,391.71 540.67,389.68 541.50,389.00C542.33,388.32 543.00,386.74 543.00,385.50C543.00,383.96 543.87,382.91 545.75,382.19C547.26,381.62 550.19,380.63 552.25,380.00C555.61,378.96 556.00,378.50 556.00,375.47C556.00,373.50 555.37,371.75 554.48,371.25C553.65,370.78 549.96,370.71 546.28,371.09C542.61,371.47 539.01,371.56 538.30,371.28C537.58,371.01 537.00,369.95 537.00,368.93C537.00,367.91 537.94,366.57 539.08,365.96C540.22,365.35 543.43,364.17 546.20,363.35C551.24,361.85 551.24,361.85 550.70,357.80C550.40,355.58 549.71,353.31 549.16,352.76C548.49,352.09 546.02,352.18 541.71,353.03C538.16,353.74 534.53,354.03 533.63,353.69C532.73,353.34 532.00,352.15 532.00,351.03C532.00,349.91 532.11,348.99 532.25,348.97C532.39,348.96 534.98,348.13 538.00,347.13C542.84,345.53 543.54,344.96 543.79,342.40C543.96,340.81 543.46,338.65 542.70,337.60C541.35,335.76 541.12,335.76 534.08,337.48C529.17,338.68 526.52,338.92 525.83,338.23C525.27,337.67 524.97,336.38 525.16,335.36C525.36,334.34 527.63,332.43 530.20,331.11C532.78,329.80 535.14,328.08 535.44,327.29C535.75,326.50 535.53,324.99 534.96,323.93C534.39,322.87 533.36,322.00 532.67,322.00C531.97,322.00 527.60,323.34 522.95,324.98C518.30,326.62 514.05,327.97 513.50,327.98C512.95,327.99 511.23,325.98 509.67,323.52C508.12,321.06 507.16,318.55 507.55,317.93C507.93,317.31 512.01,314.37 516.62,311.39C521.23,308.42 525.00,305.37 525.00,304.62C525.00,303.86 524.29,302.66 523.42,301.94C522.08,300.83 520.40,301.34 512.36,305.34C507.15,307.93 502.46,309.78 501.94,309.46C501.42,309.14 501.00,308.31 501.00,307.62C501.00,306.92 503.95,303.96 507.55,301.04C511.56,297.78 513.98,295.10 513.79,294.11C513.62,293.23 512.47,292.36 511.24,292.18C509.98,292.00 505.64,293.71 501.35,296.08C494.08,300.10 493.63,300.22 492.35,298.46C491.61,297.45 491.00,296.07 491.00,295.40C491.00,294.73 493.97,291.85 497.60,289.00C504.20,283.81 504.20,283.81 501.41,280.91C499.88,279.31 498.02,278.00 497.27,278.00C496.53,278.00 493.58,279.57 490.72,281.50C487.87,283.42 484.76,285.00 483.81,285.00C482.87,285.00 481.67,284.23 481.14,283.28C480.48,282.11 480.60,280.75 481.49,279.03C482.22,277.64 483.98,275.41 485.40,274.08C486.83,272.74 488.00,270.92 488.00,270.03C488.00,269.13 487.46,267.86 486.80,267.20C486.14,266.54 484.83,266.00 483.89,266.00C482.95,266.00 479.66,268.05 476.58,270.56C472.67,273.75 470.41,274.95 469.08,274.53C468.04,274.19 466.64,273.27 465.97,272.46C464.98,271.27 465.53,269.98 468.91,265.50C471.19,262.48 473.29,259.40 473.58,258.66C473.86,257.92 473.51,256.87 472.80,256.32C472.08,255.76 470.71,255.03 469.75,254.69C468.51,254.24 466.13,255.82 461.52,260.13C455.03,266.21 455.03,266.21 450.50,263.55C445.97,260.90 445.97,260.90 448.85,256.70C450.43,254.39 452.43,251.10 453.31,249.40C454.50,247.06 454.61,246.01 453.75,245.15C453.12,244.52 451.82,244.00 450.88,244.00C449.93,244.00 446.37,247.13 442.97,250.95C437.52,257.08 436.26,257.99 432.32,258.58C429.70,258.97 427.43,258.83 426.84,258.24C426.16,257.56 426.69,255.15 428.48,250.86C429.94,247.36 431.83,242.55 432.69,240.16C434.10,236.24 434.10,235.67 432.70,234.27C431.85,233.42 430.46,232.99 429.62,233.32C428.77,233.64 426.72,236.60 425.06,239.88C423.40,243.17 421.69,246.07 421.26,246.34C420.83,246.60 418.56,246.47 416.20,246.04C413.85,245.61 411.62,244.95 411.24,244.57C410.87,244.20 411.34,240.95 412.28,237.35C413.22,233.75 413.75,230.40 413.44,229.90C413.13,229.41 411.57,229.00 409.96,229.00C407.38,229.00 406.66,229.72 404.00,235.00C401.65,239.66 400.47,241.00 398.74,240.98C397.51,240.98 395.89,240.58 395.14,240.11C394.14,239.48 393.88,237.40 394.14,232.41C394.49,225.79 394.42,225.54 391.87,224.63C390.42,224.12 388.53,223.97 387.68,224.29C386.80,224.63 385.19,228.00 384.02,231.95C382.72,236.28 381.38,239.00 380.53,239.00C379.77,239.00 378.44,238.29 377.57,237.43C376.49,236.35 376.00,233.98 376.00,229.90C376.00,225.41 375.61,223.79 374.43,223.34C373.57,223.01 372.36,223.24 371.74,223.86C371.13,224.47 370.28,228.13 369.87,231.99C369.46,235.84 368.84,239.44 368.50,240.00C368.16,240.55 366.17,241.00 364.08,241.00C360.28,241.00 360.28,241.00 359.65,235.75C359.30,232.86 359.01,228.85 359.01,226.83C359.00,224.81 358.73,222.45 358.39,221.58C358.06,220.71 356.99,220.00 356.02,220.00C355.04,220.00 353.76,220.59 353.16,221.30C352.57,222.02 351.95,226.58 351.79,231.45C351.57,238.23 351.13,240.52 349.90,241.29C349.03,241.84 347.16,242.01 345.75,241.65C343.45,241.08 343.05,240.24 341.93,233.75C341.25,229.76 340.29,225.71 339.81,224.75C339.28,223.70 337.79,223.00 336.09,223.00C334.52,223.00 332.76,223.58 332.18,224.29C331.59,225.00 330.97,228.48 330.80,232.04C330.50,238.50 330.50,238.50 326.79,238.81C323.09,239.12 323.09,239.12 321.45,233.49C320.56,230.40 319.13,227.60 318.29,227.28C317.45,226.96 315.58,227.12 314.13,227.64C312.46,228.24 311.53,229.30 311.58,230.54C311.62,231.62 311.98,234.61 312.38,237.20C313.08,241.74 313.00,241.95 309.98,243.51C307.57,244.75 306.53,244.86 305.46,243.96C304.69,243.32 302.92,240.31 301.53,237.28C299.08,231.93 298.89,231.77 295.78,232.39C294.01,232.75 292.14,233.46 291.63,233.97C291.05,234.55 291.52,237.15 292.85,240.80C294.03,244.05 295.00,247.62 295.00,248.74C295.00,249.85 294.21,250.99 293.25,251.27C292.29,251.55 290.73,252.09 289.79,252.48C288.45,253.03 287.08,251.64 283.45,246.03C279.77,240.35 278.39,238.95 276.66,239.19C275.34,239.38 274.38,240.33 274.19,241.66C274.02,242.84 275.92,247.86 278.41,252.81C282.92,261.80 282.93,261.84 283.21,273.66C283.50,285.50 283.50,285.50 280.50,285.50C277.50,285.50 277.50,285.50 277.00,276.29C276.58,268.60 276.17,266.83 274.50,265.57C273.40,264.74 272.21,264.05 271.86,264.03C271.51,264.01 268.66,260.82 265.52,256.94C261.19,251.58 259.30,249.96 257.66,250.19C256.37,250.38 255.38,251.33 255.21,252.56C255.04,253.69 256.04,257.06 257.43,260.05C259.62,264.77 259.76,265.67 258.51,266.91C257.27,268.16 256.42,267.73 252.08,263.67C249.33,261.10 246.19,259.00 245.10,259.00C244.01,259.00 242.84,259.46 242.49,260.01C242.15,260.57 243.03,263.58 244.46,266.70C246.66,271.50 246.85,272.58 245.69,273.74C244.53,274.90 243.53,274.49 239.19,271.05C236.37,268.82 232.97,267.00 231.64,267.00C230.30,267.00 228.94,267.72 228.60,268.59C228.27,269.47 228.85,271.38 229.89,272.84C230.93,274.30 232.73,276.36 233.89,277.40C235.05,278.45 236.00,279.84 236.00,280.48C236.00,281.12 234.92,282.67 233.60,283.91C231.19,286.17 231.19,286.17 224.85,282.13C219.23,278.56 218.27,278.25 216.50,279.42C215.40,280.14 214.35,281.47 214.18,282.37C214.00,283.27 215.68,285.82 217.93,288.04C220.17,290.26 222.00,292.54 222.00,293.10C222.00,293.67 221.54,294.99 220.98,296.04C220.41,297.09 219.07,298.43 217.98,299.01C216.41,299.85 214.65,299.41 209.38,296.87C204.38,294.46 202.35,293.92 201.12,294.69C200.23,295.26 199.50,296.57 199.50,297.61C199.50,298.86 202.37,301.45 208.00,305.29C212.68,308.47 217.10,311.68 217.84,312.41C218.96,313.53 218.90,314.31 217.46,317.13C216.52,318.98 215.30,321.06 214.75,321.75C213.99,322.70 212.95,322.28 210.28,319.94C208.37,318.26 203.00,315.00 198.36,312.70C191.21,309.16 189.77,308.74 188.98,310.01C188.46,310.83 188.16,311.92 188.33,312.43C188.49,312.94 191.29,314.98 194.56,316.95C198.45,319.30 200.61,321.29 200.81,322.72C200.98,323.92 200.63,325.82 200.03,326.95C199.38,328.15 197.93,329.00 196.50,329.00C195.17,329.00 191.73,328.08 188.87,326.95C186.01,325.82 182.51,325.03 181.08,325.20C179.27,325.41 178.40,326.18 178.18,327.78C177.90,329.72 178.83,330.50 184.49,333.07C189.17,335.19 191.04,336.55 190.82,337.68C190.64,338.56 189.76,339.75 188.85,340.32C187.69,341.05 185.06,340.96 179.97,340.00C173.12,338.70 172.67,338.73 171.33,340.56C170.55,341.63 170.05,343.62 170.21,345.00C170.45,347.06 171.53,347.86 176.32,349.56C179.53,350.70 182.52,352.23 182.98,352.97C183.44,353.71 183.57,354.96 183.27,355.74C182.83,356.88 181.14,357.02 174.53,356.47C166.33,355.79 166.33,355.79 165.08,358.82C164.39,360.48 163.98,362.66 164.17,363.66C164.43,365.00 166.16,365.84 170.68,366.81C174.39,367.61 177.08,368.76 177.44,369.70C177.77,370.55 177.52,371.87 176.89,372.63C176.15,373.53 173.58,374.00 169.45,374.00C165.05,374.00 162.67,374.48 161.57,375.57C160.71,376.44 160.00,378.67 160.00,380.53C160.00,383.62 160.34,384.01 163.75,384.87C165.81,385.39 169.25,386.20 171.40,386.67C173.54,387.14 175.75,388.25 176.31,389.13C176.86,390.01 177.04,391.46 176.69,392.36C176.17,393.71 174.49,394.00 167.23,394.00C161.70,394.00 157.95,394.45 157.20,395.20C156.54,395.86 156.00,397.15 156.00,398.08C156.00,399.00 156.70,400.34 157.55,401.04C158.41,401.75 162.93,402.64 167.59,403.01C172.26,403.38 176.58,404.18 177.19,404.79C178.01,405.61 177.92,406.92 176.87,409.70C175.78,412.57 174.58,413.79 171.96,414.69C170.06,415.35 166.67,415.91 164.44,415.94C162.21,415.97 159.54,416.62 158.51,417.37C156.93,418.52 156.79,419.28 157.60,422.12C158.56,425.49 158.59,425.50 165.74,426.00C169.68,426.27 173.42,427.01 174.05,427.64C174.67,428.27 175.03,429.61 174.84,430.61C174.60,431.82 172.96,432.84 169.99,433.63C167.52,434.28 164.26,435.09 162.75,435.43C160.33,435.96 160.00,436.50 160.00,439.90C160.00,442.13 160.64,444.29 161.52,445.02C162.55,445.87 164.84,446.09 168.69,445.69C171.79,445.37 175.14,445.54 176.13,446.07C177.14,446.61 177.68,447.67 177.36,448.50C177.05,449.30 174.26,450.73 171.15,451.66C168.04,452.60 164.92,453.87 164.22,454.50C163.17,455.43 163.17,456.37 164.23,459.57C165.42,463.16 165.83,463.50 169.01,463.45C170.93,463.43 174.86,463.05 177.75,462.61C182.21,461.93 183.09,462.06 183.64,463.51C184.02,464.49 183.70,465.58 182.90,466.11C182.13,466.60 178.87,467.98 175.65,469.17C172.44,470.36 169.57,471.95 169.29,472.69C169.01,473.43 169.31,475.35 169.98,476.95C170.64,478.55 171.77,480.08 172.49,480.36C173.20,480.63 176.64,479.97 180.13,478.88C183.61,477.80 187.59,477.04 188.97,477.21C190.42,477.38 191.62,478.24 191.82,479.26C192.07,480.60 190.29,481.91 184.49,484.67C180.27,486.67 176.60,488.88 176.33,489.58C176.06,490.27 176.35,491.78 176.96,492.92C177.57,494.06 178.89,495.00 179.89,495.00C180.89,495.00 187.19,492.51 193.90,489.47C200.60,486.42 207.36,483.68 208.91,483.37C211.13,482.92 212.10,483.31 213.37,485.12C214.27,486.40 215.00,488.40 215.00,489.57C215.00,490.93 212.79,493.62 208.91,497.00C205.56,499.91 200.16,504.25 196.91,506.65C193.06,509.48 191.00,511.70 191.00,513.03C191.00,514.15 191.77,515.36 192.70,515.72C193.78,516.13 197.84,514.56 203.64,511.51C211.44,507.39 213.11,506.84 214.43,507.94C215.29,508.66 216.00,509.81 216.00,510.50C216.00,511.19 212.87,514.13 209.04,517.04C205.22,519.94 201.86,522.92 201.58,523.65C201.30,524.38 202.14,526.22 203.45,527.74C205.83,530.50 205.83,530.50 212.44,527.25C216.07,525.46 219.48,524.00 220.02,524.00C220.56,524.00 221.00,524.69 221.00,525.54C221.00,526.39 218.93,529.30 216.41,532.00C211.81,536.91 211.81,536.91 214.43,539.52C217.05,542.14 217.05,542.14 221.27,538.97C223.60,537.23 227.12,534.71 229.09,533.37C231.21,531.94 233.37,531.20 234.34,531.58C235.25,531.93 236.00,533.10 236.00,534.19C236.00,535.28 233.51,538.60 230.47,541.57C225.13,546.79 224.99,547.05 226.48,549.32C227.32,550.61 229.15,552.28 230.53,553.02C232.87,554.27 233.31,554.11 236.77,550.83C238.82,548.89 242.19,546.06 244.25,544.53C247.30,542.28 248.28,541.99 249.48,542.98C250.77,544.05 250.75,544.59 249.34,547.35C248.46,549.08 246.22,552.60 244.35,555.16C240.96,559.82 240.96,559.82 243.61,561.91C245.07,563.06 246.84,564.00 247.53,564.00C248.23,564.00 251.59,560.85 255.00,557.00C258.64,552.90 262.00,550.00 263.13,550.00C264.19,550.00 265.31,550.63 265.60,551.40C265.90,552.17 265.15,554.75 263.93,557.13C262.72,559.51 260.61,563.14 259.25,565.20C257.88,567.26 257.01,569.58 257.30,570.35C257.60,571.12 259.19,572.22 260.84,572.79C263.83,573.84 263.87,573.80 269.30,565.17C272.30,560.40 276.87,552.98 279.46,548.68C282.05,544.39 283.92,540.22 283.61,539.43C283.25,538.48 281.54,538.00 278.46,538.00C274.61,538.00 273.91,537.71 274.19,536.25C274.48,534.75 275.92,534.46 284.26,534.21C292.76,533.96 294.00,534.14 294.00,535.58C294.00,536.48 291.87,542.01 289.27,547.86C286.67,553.71 282.20,563.11 279.34,568.74C274.14,578.99 274.14,578.99 276.29,580.49C277.48,581.32 279.18,582.00 280.09,582.00C281.09,582.00 283.55,578.87 286.38,574.00C289.56,568.52 291.61,566.00 292.89,566.00C293.92,566.00 295.29,566.64 295.93,567.42C296.86,568.53 296.56,570.45 294.56,576.25C293.15,580.32 292.00,584.17 292.00,584.80C292.00,585.43 293.46,586.33 295.25,586.81C297.04,587.29 298.95,587.52 299.50,587.33C300.05,587.13 301.78,583.85 303.35,580.02C304.93,576.20 306.79,572.59 307.51,571.99C308.23,571.39 310.00,571.21 311.49,571.59C312.96,571.96 314.40,572.87 314.68,573.61C314.97,574.36 314.26,578.09 313.10,581.89C311.95,585.70 311.00,589.06 311.00,589.36C311.00,589.66 312.61,590.35 314.57,590.89C316.54,591.44 318.76,591.65 319.50,591.36C320.25,591.08 322.08,587.48 323.58,583.37C326.31,575.90 326.31,575.90 329.90,576.20C333.02,576.46 333.49,576.83 333.42,579.00C333.37,580.38 333.15,584.18 332.92,587.46C332.52,593.14 332.62,593.46 335.11,594.35C336.54,594.87 338.88,595.00 340.29,594.64C342.57,594.07 342.93,593.35 343.50,588.25C343.85,585.09 344.46,580.70 344.85,578.50C345.54,574.56 345.62,574.50 350.28,574.20C355.00,573.89 355.00,573.89 355.00,585.36C355.00,593.60 355.35,596.98 356.25,597.34C356.94,597.62 358.03,597.88 358.68,597.92zM214.24,591.00C214.79,591.00 213.60,589.19 211.60,586.98C209.60,584.77 202.54,577.90 195.90,571.73C189.26,565.55 181.13,557.35 177.84,553.50C174.54,549.65 169.03,542.23 165.59,537.00C162.15,531.77 156.90,523.55 153.92,518.72C150.94,513.89 146.27,506.91 143.54,503.22C140.02,498.45 138.47,497.00 138.22,498.24C138.02,499.19 139.91,504.14 142.41,509.24C144.92,514.33 150.49,523.90 154.79,530.50C159.10,537.10 166.30,547.06 170.79,552.64C175.29,558.22 182.23,565.81 186.23,569.52C190.23,573.22 197.94,579.57 203.38,583.63C208.81,587.68 213.70,591.00 214.24,591.00zM427.21,583.37C426.67,583.70 425.80,583.42 425.29,582.74C424.77,582.06 423.59,579.46 422.67,576.97C421.75,574.47 421.00,571.44 421.00,570.22C421.00,569.00 421.43,568.00 421.95,568.00C422.48,568.00 423.86,570.14 425.02,572.75C426.18,575.36 427.37,578.68 427.67,580.13C427.96,581.57 427.76,583.03 427.21,583.37zM469.52,573.00C470.36,573.00 474.30,571.37 478.27,569.37C482.25,567.38 489.34,563.12 494.03,559.92C498.71,556.71 507.31,549.83 513.13,544.62C518.95,539.42 527.04,531.18 531.12,526.33C535.19,521.47 543.17,511.51 548.86,504.18C554.54,496.86 559.43,491.09 559.71,491.38C559.99,491.66 559.68,494.15 559.02,496.92C558.36,499.68 557.99,502.48 558.21,503.14C558.43,503.79 559.52,502.78 560.64,500.89C561.75,499.00 564.50,492.96 566.73,487.48C568.97,481.99 572.19,472.82 573.89,467.10C575.60,461.38 577.87,452.11 578.95,446.51C580.03,440.91 581.45,430.13 582.10,422.55C583.01,412.00 583.02,405.55 582.13,395.13C581.49,387.63 580.07,377.23 578.98,372.00C577.88,366.77 576.02,359.57 574.85,356.00C573.68,352.43 571.40,346.87 569.79,343.65C568.19,340.43 566.64,338.02 566.37,338.30C566.10,338.57 567.02,345.25 568.41,353.15C569.81,361.04 571.47,373.12 572.10,380.00C572.79,387.42 573.01,399.82 572.67,410.50C572.26,422.97 571.44,431.57 569.98,438.50C568.83,444.00 566.33,453.15 564.44,458.84C562.55,464.53 558.73,473.60 555.95,479.00C553.18,484.40 548.74,491.89 546.09,495.66C543.44,499.42 533.99,510.26 525.08,519.75C516.17,529.23 503.38,541.83 496.65,547.75C489.92,553.66 480.72,561.20 476.21,564.50C471.70,567.80 468.01,571.06 468.01,571.75C468.00,572.44 468.69,573.00 469.52,573.00zM363.50,564.34C361.30,564.63 358.04,564.43 356.25,563.90C353.29,563.03 353.00,562.59 353.00,558.97C353.00,555.92 353.39,555.00 354.68,555.00C355.60,555.00 357.85,555.54 359.68,556.20C362.04,557.05 363.31,557.09 364.07,556.33C364.71,555.69 364.87,553.80 364.45,551.61C363.77,547.96 363.77,547.96 359.09,548.58C355.45,549.07 354.11,548.84 353.06,547.57C352.03,546.33 351.96,545.37 352.79,543.56C353.44,542.13 355.09,540.92 356.96,540.51C358.65,540.14 361.79,540.13 363.93,540.49C366.07,540.85 368.57,541.69 369.49,542.37C370.79,543.32 371.20,545.41 371.33,551.76C371.48,558.75 371.21,560.21 369.50,561.87C368.40,562.94 365.70,564.05 363.50,564.34zM441.00,551.40C439.62,551.66 437.36,551.51 435.97,551.08C434.58,550.65 432.44,549.67 431.22,548.90C429.98,548.13 429.00,546.51 429.00,545.23C429.00,543.97 429.63,542.69 430.41,542.40C431.19,542.10 433.19,542.56 434.86,543.43C436.53,544.29 438.37,545.00 438.95,545.00C439.53,545.00 440.00,544.15 440.00,543.11C440.00,542.07 439.29,540.94 438.42,540.61C437.55,540.27 435.86,540.00 434.67,539.99C433.30,539.99 432.04,539.00 431.25,537.29C430.56,535.81 430.00,533.36 430.00,531.84C430.00,530.13 430.74,528.68 431.93,528.04C433.00,527.47 435.67,527.00 437.87,527.00C440.07,527.00 443.06,527.45 444.50,528.00C446.45,528.74 447.06,529.59 446.82,531.25C446.55,533.12 445.78,533.55 442.25,533.81C439.91,533.98 438.00,534.45 438.00,534.86C438.00,535.27 438.54,536.14 439.20,536.80C439.86,537.46 441.38,538.00 442.58,538.00C443.78,538.00 445.22,538.57 445.80,539.26C446.37,539.95 447.13,541.68 447.49,543.11C447.98,545.05 447.55,546.39 445.82,548.32C444.55,549.75 442.38,551.14 441.00,551.40zM232.94,493.54C230.50,493.72 227.60,493.63 226.50,493.33C225.40,493.04 223.75,492.13 222.84,491.32C221.86,490.45 220.91,487.49 220.51,484.08C220.12,480.71 220.30,476.59 220.95,474.17C221.57,471.90 222.92,469.58 223.97,469.02C225.01,468.46 227.87,468.00 230.32,468.00C233.22,468.00 235.60,468.67 237.14,469.91C239.24,471.61 239.53,472.78 239.82,480.66C240.05,487.04 239.76,490.01 238.76,491.35C237.87,492.55 235.80,493.32 232.94,493.54zM476.87,492.40C475.02,492.57 471.19,492.53 468.37,492.31C463.57,491.93 463.19,491.70 462.63,488.88C462.25,486.98 462.63,484.68 463.65,482.68C464.55,480.93 466.12,478.43 467.14,477.12C468.16,475.80 469.00,474.12 469.00,473.37C469.00,472.59 467.96,472.00 466.62,472.00C465.31,472.00 463.66,471.29 462.94,470.42C461.85,469.12 461.87,468.69 463.06,467.94C463.85,467.44 467.74,467.02 471.69,467.02C475.65,467.01 479.17,467.46 479.52,468.03C479.87,468.59 479.19,471.05 478.01,473.48C476.83,475.92 474.32,479.27 472.43,480.93C470.54,482.58 469.00,484.44 469.00,485.06C469.00,485.78 470.70,486.06 473.73,485.84C478.08,485.53 478.57,485.73 479.82,488.33C480.57,489.88 480.97,491.36 480.71,491.62C480.46,491.88 478.73,492.23 476.87,492.40zM492.71,492.94C490.40,492.90 487.55,492.49 486.40,492.02C484.84,491.39 484.13,489.95 483.65,486.45C483.29,483.85 483.00,480.19 483.00,478.31C483.00,476.44 483.66,473.63 484.46,472.07C485.27,470.52 486.65,468.96 487.54,468.62C488.44,468.28 490.48,468.00 492.08,468.00C493.69,468.00 495.90,468.90 497.00,470.00C498.69,471.69 499.00,473.33 499.00,480.57C499.00,485.28 498.53,490.00 497.96,491.07C497.18,492.53 495.90,492.98 492.71,492.94zM229.81,487.98C230.19,487.98 231.12,487.58 231.88,487.10C232.97,486.41 233.07,484.98 232.38,480.36C231.65,475.51 231.14,474.45 229.40,474.20C227.46,473.92 227.31,474.34 227.43,479.70C227.50,482.89 227.91,486.06 228.34,486.75C228.77,487.44 229.43,487.99 229.81,487.98zM491.75,486.81C493.16,486.54 493.50,485.42 493.50,481.00C493.50,476.58 493.16,475.46 491.75,475.19C490.24,474.90 490.00,475.68 490.00,481.00C490.00,486.32 490.24,487.10 491.75,486.81zM357.55,429.61C354.22,429.79 350.37,429.58 348.99,429.13C347.61,428.67 345.08,427.58 343.36,426.69C341.64,425.80 338.46,423.05 336.29,420.59C334.12,418.13 331.82,414.35 331.18,412.19C330.53,410.03 330.01,406.97 330.02,405.38C330.04,403.80 331.11,399.91 332.41,396.75C333.71,393.59 334.43,391.00 334.02,391.00C333.60,391.00 329.94,388.83 325.88,386.17C321.82,383.51 314.00,377.55 308.50,372.92C303.00,368.29 290.48,356.64 280.68,347.04C270.87,337.44 262.41,328.76 261.87,327.75C261.10,326.32 262.46,326.71 268.04,329.52C271.98,331.50 281.34,337.29 288.85,342.38C296.36,347.47 308.33,356.10 315.45,361.57C322.58,367.03 331.58,374.56 335.45,378.29C341.93,384.54 342.77,385.04 345.80,384.49C347.84,384.12 349.39,383.12 349.85,381.88C350.26,380.77 350.70,374.16 350.83,367.18C350.96,360.21 351.51,342.57 352.05,328.00C352.59,313.43 353.50,295.01 354.07,287.08C354.64,279.15 355.57,271.79 356.15,270.73C356.87,269.37 357.50,269.10 358.24,269.84C358.82,270.42 359.46,274.18 359.66,278.20C359.87,282.21 360.69,298.77 361.49,315.00C362.29,331.23 363.21,352.82 363.53,363.00C363.86,373.18 364.32,382.46 364.55,383.63C364.79,384.80 365.88,386.00 366.99,386.29C368.48,386.68 372.49,383.88 382.75,375.28C390.31,368.94 404.82,357.35 415.00,349.51C425.18,341.68 436.92,332.96 441.09,330.14C445.26,327.31 449.20,325.00 449.84,325.00C450.48,325.00 451.00,325.47 451.00,326.05C451.00,326.62 449.49,329.46 447.64,332.34C445.80,335.23 440.74,341.84 436.40,347.04C432.06,352.25 419.96,365.21 409.51,375.86C399.05,386.51 388.65,396.50 386.40,398.06C382.63,400.66 382.24,401.35 381.73,406.32C381.42,409.30 380.26,413.53 379.14,415.72C378.03,417.90 375.51,421.10 373.55,422.83C371.58,424.55 368.54,426.71 366.78,427.61C365.03,428.52 360.87,429.42 357.55,429.61zM195.00,414.14C192.53,414.34 188.79,414.37 186.69,414.19C183.07,413.89 182.90,413.72 183.19,410.69C183.49,407.57 183.63,407.49 188.97,407.19C191.98,407.02 195.04,406.38 195.77,405.78C196.61,405.08 196.99,403.00 196.80,400.09C196.55,396.27 196.17,395.50 194.50,395.50C192.97,395.50 192.43,396.27 192.19,398.75C192.01,400.54 191.43,402.00 190.89,402.00C190.34,402.00 188.57,401.31 186.95,400.47C184.56,399.24 184.00,398.30 184.00,395.55C184.00,393.67 184.71,391.44 185.57,390.57C186.67,389.48 189.05,389.00 193.42,389.00C198.36,389.00 200.06,389.41 201.45,390.94C202.91,392.56 203.15,394.37 202.85,401.91C202.60,408.27 202.06,411.35 201.00,412.35C200.18,413.13 197.47,413.93 195.00,414.14zM524.18,412.94C521.61,412.90 518.49,412.47 517.25,411.97C515.79,411.38 515.00,410.22 515.00,408.65C515.00,407.33 515.67,405.68 516.50,405.00C517.48,404.19 518.00,401.96 518.00,398.60C518.00,395.59 518.64,392.54 519.53,391.26C520.37,390.06 522.64,388.78 524.57,388.42C527.14,387.94 528.57,388.21 529.93,389.43C530.94,390.35 532.03,392.41 532.35,394.01C532.67,395.61 532.65,399.89 532.31,403.54C531.97,407.18 531.06,410.80 530.28,411.58C529.43,412.43 526.96,412.97 524.18,412.94zM354.09,407.00C354.99,407.00 356.92,406.07 358.37,404.93C359.89,403.73 361.00,401.85 361.00,400.48C361.00,399.17 360.01,397.42 358.78,396.56C357.56,395.70 356.01,395.00 355.35,395.00C354.69,395.00 352.77,396.17 351.08,397.59C349.38,399.01 348.00,401.01 348.00,402.03C348.00,403.05 349.00,404.59 350.22,405.44C351.44,406.30 353.18,407.00 354.09,407.00zM525.61,406.00C526.61,406.00 527.00,404.62 527.00,401.06C527.00,398.34 526.50,395.81 525.89,395.43C525.28,395.05 524.38,395.36 523.90,396.12C523.42,396.88 523.02,398.70 523.02,400.17C523.01,401.64 523.27,403.55 523.61,404.42C523.94,405.29 524.84,406.00 525.61,406.00zM513.48,401.02C512.57,401.77 511.76,401.62 510.61,400.46C509.64,399.49 509.00,397.18 509.00,394.63C509.00,392.30 509.54,389.86 510.20,389.20C510.86,388.54 512.16,388.00 513.09,388.00C514.02,388.00 515.01,388.59 515.29,389.32C515.57,390.04 515.56,392.73 515.27,395.30C514.98,397.87 514.17,400.44 513.48,401.02zM553.92,390.70C556.41,390.59 558.52,389.95 558.76,389.25C559.05,388.36 557.72,388.00 554.17,388.00C551.41,388.00 548.37,388.30 547.40,388.67C545.77,389.30 545.78,389.41 547.57,390.13C548.63,390.56 551.49,390.81 553.92,390.70zM226.22,337.88C225.10,338.48 223.82,338.48 222.72,337.87C221.35,337.10 221.00,335.49 221.00,329.92C221.00,326.08 221.65,321.38 222.45,319.47C223.25,317.56 224.14,316.00 224.45,316.00C224.75,316.00 226.78,317.61 228.96,319.58C232.92,323.16 232.92,323.16 233.54,320.33C233.89,318.77 234.34,316.95 234.55,316.27C234.77,315.55 235.67,315.30 236.71,315.67C237.70,316.02 239.06,316.75 239.75,317.28C240.59,317.93 241.00,321.28 241.00,327.51C241.00,336.16 240.86,336.80 238.84,337.33C237.23,337.75 235.85,336.99 233.42,334.34C231.63,332.38 229.67,331.08 229.08,331.45C228.49,331.82 228.00,333.20 228.00,334.52C228.00,335.85 227.20,337.36 226.22,337.88zM475.61,337.00C474.36,337.00 473.03,336.70 472.67,336.33C472.30,335.97 472.00,332.56 472.00,328.77C472.00,324.97 471.53,320.99 470.95,319.91C470.37,318.83 469.50,318.19 469.02,318.49C468.53,318.79 467.83,318.53 467.45,317.92C467.07,317.31 467.40,316.17 468.17,315.40C468.95,314.62 471.36,313.88 473.54,313.74C477.50,313.50 477.50,313.50 478.24,321.00C478.66,325.12 478.74,330.41 478.44,332.75C477.96,336.34 477.52,337.00 475.61,337.00zM486.39,336.80C484.64,337.05 484.17,336.44 483.65,333.30C483.30,331.21 483.02,326.29 483.01,322.38C483.00,315.25 483.00,315.25 486.12,314.62C487.84,314.28 490.76,314.00 492.60,314.00C495.03,314.00 496.38,314.66 497.52,316.39C498.71,318.20 499.01,320.90 498.79,327.64C498.53,335.74 498.33,336.50 496.50,336.50C494.76,336.50 494.35,335.46 493.38,328.50C492.76,324.10 492.20,320.30 492.13,320.05C492.06,319.80 491.44,320.16 490.75,320.85C490.06,321.53 489.27,325.34 489.00,329.30C488.56,335.67 488.26,336.53 486.39,336.80zM432.75,285.82C430.02,286.13 430.00,286.09 430.00,280.15C430.00,276.86 429.73,273.45 429.39,272.58C429.06,271.71 428.13,271.00 427.32,271.00C426.38,271.00 425.97,270.20 426.18,268.75C426.38,267.36 427.91,265.74 430.19,264.52C432.22,263.44 434.25,262.91 434.69,263.35C435.14,263.80 435.50,268.96 435.50,274.83C435.50,285.50 435.50,285.50 432.75,285.82zM343.12,273.98C340.58,273.98 337.90,273.59 337.17,273.13C336.41,272.65 335.98,271.03 336.17,269.39C336.46,266.88 336.97,266.46 340.02,266.20C343.18,265.94 343.67,265.48 344.82,261.80C345.73,258.90 345.79,257.39 345.04,256.64C344.28,255.88 343.06,255.92 340.84,256.75C339.12,257.40 337.32,257.70 336.85,257.41C336.38,257.12 336.00,255.87 336.00,254.64C336.00,253.41 336.54,251.86 337.20,251.20C337.86,250.54 340.78,250.00 343.70,250.00C347.67,250.00 349.50,250.50 351.00,252.00C352.21,253.21 353.00,255.33 353.00,257.38C353.00,260.19 352.50,260.97 350.00,262.00C348.35,262.68 347.00,263.67 347.00,264.20C347.00,264.75 348.30,264.87 350.00,264.50C352.81,263.88 353.00,264.03 353.00,266.85C353.00,268.91 352.17,270.51 350.37,271.93C348.55,273.35 346.29,274.00 343.12,273.98zM373.00,273.22C371.62,273.49 369.60,273.50 368.50,273.24C367.40,272.98 366.20,272.30 365.84,271.72C365.47,271.14 365.59,269.59 366.09,268.27C366.59,266.95 367.00,265.40 367.00,264.83C367.00,264.22 365.17,263.94 362.50,264.16C360.02,264.35 358.00,264.22 358.00,263.87C358.00,263.51 359.95,260.58 362.33,257.36C364.71,254.14 367.38,250.90 368.27,250.17C369.16,249.44 370.93,248.99 372.19,249.17C374.39,249.48 374.54,250.05 375.33,260.83C375.79,267.07 376.02,272.29 375.83,272.44C375.65,272.59 374.38,272.94 373.00,273.22zM247.75,209.00C248.16,208.99 250.07,208.00 252.00,206.78C255.20,204.76 255.31,204.54 253.29,204.22C251.46,203.93 251.17,203.40 251.63,201.12C252.04,199.07 251.49,197.55 249.50,195.18C247.62,192.95 245.96,192.00 243.91,192.00C241.96,192.00 241.00,192.51 241.00,193.54C241.00,194.39 241.94,196.91 243.08,199.15C244.22,201.39 246.01,203.45 247.05,203.72C248.55,204.11 248.74,204.61 247.98,206.04C247.44,207.05 247.00,208.12 247.00,208.43C247.00,208.75 247.34,209.00 247.75,209.00zM232.16,184.00C233.17,184.00 234.00,183.38 234.00,182.63C234.00,181.87 231.76,177.82 229.02,173.63C226.28,169.43 223.67,166.00 223.22,166.00C222.77,166.00 221.86,166.54 221.20,167.20C220.54,167.86 220.00,169.17 220.00,170.10C220.00,171.04 222.32,174.55 225.16,177.90C228.03,181.29 231.13,184.00 232.16,184.00zM341.86,183.00C345.70,183.00 349.55,182.73 350.42,182.39C351.29,182.06 352.00,180.78 352.00,179.55C352.00,178.32 351.06,176.46 349.90,175.41C348.32,173.98 346.28,173.51 341.65,173.51C335.50,173.50 335.50,173.50 335.20,178.25C334.89,183.00 334.89,183.00 341.86,183.00zM339.66,171.00C341.53,171.00 344.59,170.36 346.45,169.58C348.31,168.81 350.36,167.20 351.00,166.01C351.63,164.82 351.91,163.20 351.60,162.41C351.30,161.62 349.91,160.54 348.53,160.01C347.14,159.48 346.00,158.64 346.00,158.14C346.00,157.64 347.09,156.51 348.43,155.64C350.63,154.20 350.84,153.44 350.63,147.77C350.39,141.50 350.39,141.50 343.61,141.50C338.00,141.50 336.58,141.84 335.34,143.50C334.25,144.96 333.99,146.99 334.39,151.00C334.69,154.03 335.23,159.76 335.60,163.75C336.26,171.00 336.26,171.00 339.66,171.00zM325.54,134.00C326.76,134.00 327.00,131.34 327.00,117.62C327.00,108.62 326.72,99.84 326.38,98.12C326.03,96.41 325.41,95.00 324.99,95.00C324.57,95.00 323.19,95.83 321.94,96.85C319.65,98.70 319.65,98.70 320.77,114.30C321.38,122.88 322.37,130.82 322.97,131.95C323.58,133.08 324.73,134.00 325.54,134.00zM368.86,131.00C369.34,131.00 370.01,128.91 370.36,126.36C370.71,123.81 371.00,115.97 371.00,108.94C371.00,101.91 370.73,95.45 370.39,94.58C370.06,93.71 369.10,93.00 368.26,93.00C367.01,93.00 366.85,93.87 367.36,97.64C367.71,100.19 368.00,108.74 368.00,116.64C368.00,124.54 368.39,131.00 368.86,131.00zM384.86,129.00C385.33,129.00 387.56,127.54 389.81,125.75C392.06,123.96 396.41,119.35 399.47,115.50C402.54,111.65 405.93,106.13 407.02,103.23C408.10,100.33 409.27,95.59 409.61,92.69C410.01,89.22 409.67,85.27 408.60,81.07C407.70,77.57 405.78,72.53 404.33,69.87C402.88,67.20 398.95,62.40 395.60,59.19C392.24,55.98 387.30,52.07 384.62,50.50C381.94,48.94 376.77,46.58 373.13,45.26C368.53,43.59 363.50,42.70 356.51,42.33C349.39,41.95 344.33,42.26 339.00,43.38C334.88,44.26 328.12,46.63 324.00,48.65C318.53,51.33 314.41,54.40 308.76,60.03C303.28,65.49 300.14,69.62 298.02,74.15C296.29,77.84 294.74,83.15 294.38,86.66C294.00,90.32 294.24,94.90 294.98,98.13C295.67,101.08 297.27,105.33 298.54,107.56C299.82,109.79 302.95,113.54 305.51,115.90C308.06,118.25 310.33,120.00 310.55,119.78C310.77,119.56 308.83,115.20 306.23,110.10C301.51,100.84 301.50,100.80 301.50,90.66C301.50,81.46 301.78,79.93 304.43,74.50C306.12,71.04 309.78,66.11 313.10,62.85C316.73,59.28 321.80,55.72 326.88,53.18C331.30,50.97 337.52,48.62 340.71,47.95C344.24,47.22 350.21,46.96 356.00,47.30C361.65,47.63 367.86,48.68 371.32,49.90C374.52,51.02 379.70,53.50 382.82,55.41C385.94,57.31 390.61,61.04 393.19,63.69C395.77,66.33 398.76,70.57 399.84,73.09C400.91,75.61 402.33,80.26 402.98,83.41C403.64,86.58 403.88,91.26 403.51,93.91C403.15,96.54 401.78,100.90 400.47,103.60C398.77,107.09 398.27,107.63 398.75,105.50C399.11,103.85 399.40,99.11 399.39,94.96C399.36,88.63 398.91,86.60 396.55,82.27C395.01,79.43 391.52,74.62 388.81,71.58C385.36,67.71 381.73,64.99 376.69,62.51C371.81,60.11 366.87,58.59 361.33,57.79C355.06,56.89 351.10,56.89 344.33,57.79C338.08,58.62 333.66,59.90 329.19,62.16C325.17,64.20 320.85,67.55 317.28,71.41C314.20,74.74 310.58,79.86 309.24,82.80C307.16,87.32 306.85,89.29 307.17,95.81C307.44,101.26 308.21,104.81 309.83,108.00C311.08,110.47 312.97,113.62 314.03,115.00C315.96,117.50 315.96,117.50 315.98,107.82C316.00,98.57 316.12,98.05 318.64,96.07C320.09,94.93 324.25,93.05 327.89,91.89C332.57,90.39 338.23,89.62 347.27,89.26C355.04,88.94 363.07,89.21 367.77,89.94C372.02,90.61 377.71,91.79 380.42,92.57C383.13,93.35 386.39,94.68 387.67,95.52C389.85,96.95 390.00,97.67 389.96,106.77C389.93,112.33 389.33,118.14 388.55,120.32C387.80,122.42 386.47,124.93 385.60,125.89C384.72,126.86 384.00,127.96 384.00,128.33C384.00,128.70 384.39,129.00 384.86,129.00zM357.15,124.09C357.64,122.77 357.93,115.23 357.78,107.34C357.61,98.84 357.09,92.89 356.50,92.75C355.90,92.60 355.38,96.65 355.19,103.00C355.01,108.78 355.18,116.42 355.56,120.00C356.12,125.40 356.39,126.09 357.15,124.09z"/>
</svg>